<?xml version="1.0" encoding="UTF-8" standalone="no"?><!DOCTYPE svg PUBLIC "-//W3C//DTD SVG 1.1//EN" "http://www.w3.org/Graphics/SVG/1.1/DTD/svg11.dtd"><svg width="100%" height="100%" viewBox="0 0 363 361" version="1.1" xmlns="http://www.w3.org/2000/svg" xmlns:xlink="http://www.w3.org/1999/xlink" xml:space="preserve" xmlns:serif="http://www.serif.com/" style="fill-rule:evenodd;clip-rule:evenodd;stroke-linejoin:round;stroke-miterlimit:2;"><path d="M7.537,151.633c13.618,-82.89 85.665,-146.213 172.385,-146.213c96.42,0 174.7,78.281 174.7,174.7c0,96.42 -78.281,174.7 -174.7,174.7c-86.687,0 -158.712,-63.275 -172.369,-146.118l62.935,-0c33.663,91.238 118.721,79.834 118.721,79.834l0,-49.769l70.132,0c0,0 13.004,-1.416 13.613,-15.033c0.609,-13.617 -15.027,-15.033 -15.027,-15.033l-68.718,0l0,-57.069l69.084,0c0,0 14.937,-0.798 14.661,-15.033c-0.276,-14.235 -14.39,-15.033 -14.39,-15.033l-69.355,0l0,-49.769c-88.186,-9.555 -120.161,78.682 -118.721,79.834l-62.951,0Z" style="fill:#005284;"/></svg>